<?xml version="1.0" encoding="UTF-8" standalone="no"?>
<svg
   xmlns:dc="http://purl.org/dc/elements/1.1/"
   xmlns:cc="http://creativecommons.org/ns#"
   xmlns:rdf="http://www.w3.org/1999/02/22-rdf-syntax-ns#"
   xmlns:svg="http://www.w3.org/2000/svg"
   xmlns="http://www.w3.org/2000/svg"
   xmlns:sodipodi="http://sodipodi.sourceforge.net/DTD/sodipodi-0.dtd"
   xmlns:inkscape="http://www.inkscape.org/namespaces/inkscape"
   inkscape:version="1.0 (4035a4fb49, 2020-05-01)"
   sodipodi:docname="camphorGreen.svg"
   id="svg69"
   version="1.1"
   height="100%"
   width="100%"
   preserveAspectRatio="xMidYMid"
   viewBox="96.93 112.57 58.19 85.77">
  <metadata
     id="metadata75">
    <rdf:RDF>
      <cc:Work
         rdf:about="">
        <dc:format>image/svg+xml</dc:format>
        <dc:type
           rdf:resource="http://purl.org/dc/dcmitype/StillImage" />
      </cc:Work>
    </rdf:RDF>
  </metadata>
  <defs
     id="defs73" />
  <sodipodi:namedview
     inkscape:current-layer="drawing"
     inkscape:window-maximized="1"
     inkscape:window-y="-8"
     inkscape:window-x="-8"
     inkscape:cy="42.885"
     inkscape:cx="29.095"
     inkscape:zoom="9.6482306"
     showgrid="false"
     id="namedview71"
     inkscape:window-height="1017"
     inkscape:window-width="1920"
     inkscape:pageshadow="2"
     inkscape:pageopacity="0"
     guidetolerance="10"
     gridtolerance="10"
     objecttolerance="10"
     borderopacity="1"
     bordercolor="#666666"
     pagecolor="#ffffff" />
  <clipPath
     id="814">
    <rect
       id="rect2"
       height="719"
       width="539"
       y="0.5"
       x="0.5" />
  </clipPath>
  <g
     id="drawing">
    <rect
       style="fill:none"
       id="rect5"
       fill="#ffffff"
       height="100%"
       width="58.189999"
       y="112.57"
       x="96.93" />
    <g
       clip-path="url(#814)"
       id="page">
      <g
         id="Solid">
        <path
           id="path7"
           shape-rendering="geometricPrecision"
           fill="#c7fe54"
           stroke-linejoin="miter"
           fill-rule="evenodd"
           stroke-width="0"
           stroke="#c7fe54"
           d="m 96.93,176.2 v 0 l 1.04,-0.8 1.04,-0.8 19.6,-5.3 0.5,0.38 -1.04,0.8 z" />
      </g>
      <g
         id="g12">
        <path
           id="path10"
           shape-rendering="geometricPrecision"
           fill="#c7fe54"
           stroke-linejoin="miter"
           fill-rule="evenodd"
           stroke-width="0"
           stroke="#c7fe54"
           d="m 119.35,170.26 v 0 l -0.24,-0.58 0.5,-0.38 20.42,5.45 0.24,0.58 0.24,0.58 z" />
      </g>
      <g
         id="g16">
        <path
           id="path14"
           shape-rendering="geometricPrecision"
           fill="#c7fe54"
           stroke-linejoin="miter"
           fill-rule="evenodd"
           stroke-width="0"
           stroke="#c7fe54"
           d="m 140.51,175.91 v 0 l -0.24,-0.58 -0.24,-0.58 10.43,-18.07 0.76,-0.32 0.76,-0.32 z" />
      </g>
      <g
         id="g20">
        <path
           id="path18"
           shape-rendering="geometricPrecision"
           fill="#c7fe54"
           stroke-linejoin="miter"
           fill-rule="evenodd"
           stroke-width="0"
           stroke="#c7fe54"
           d="m 99.01,174.6 v 0 l -1.04,0.8 -1.04,0.8 11.66,-20.19 0.33,0.43 0.33,0.43 z" />
      </g>
      <g
         id="g27">
        <g
           id="Bond's parts">
          <path
             id="path22"
             shape-rendering="geometricPrecision"
             fill="#c7fe54"
             stroke-linejoin="miter"
             fill-rule="evenodd"
             stroke-width="0"
             stroke="#c7fe54"
             d="m 128.95,150.5 v 0 h 0.6 l 0.2,0.1 0.3,0.05 v 0.6 l -0.2,0.05 -0.4,0.1 -0.4,0.1 -0.3,0.1 -0.4,0.1 -0.4,0.1 -0.3,0.1 -0.4,0.1 -0.4,0.1 -0.3,0.1 -0.4,0.1 -0.4,0.1 -0.4,0.1 -0.3,0.1 -0.4,0.1 -0.4,0.1 -0.3,0.1 -0.4,0.1 -0.4,0.1 -0.3,0.1 -0.4,0.1 -0.4,0.1 -0.3,0.1 -0.4,0.1 -0.2,0.05 v -1.1 l 0.4,-0.05 0.4,-0.1 0.4,-0.1 0.3,-0.1 0.4,-0.1 0.4,-0.1 0.3,-0.1 0.4,-0.1 0.4,-0.1 0.3,-0.1 0.4,-0.1 0.4,-0.1 0.3,-0.1 0.4,-0.1 0.4,-0.1 0.4,-0.1 0.3,-0.1 0.4,-0.1 0.4,-0.1 0.3,-0.1 z" />
          <path
             id="path24"
             shape-rendering="geometricPrecision"
             fill="#c7fe54"
             stroke-linejoin="miter"
             fill-rule="evenodd"
             stroke-width="0"
             stroke="#c7fe54"
             d="m 116.07,154 v 0 l 0.03,-0.05 0.05,1.1 -0.4,0.05 -0.3,0.1 -0.4,0.1 -0.4,0.1 -0.3,0.1 -0.4,0.1 -0.4,0.1 -0.4,0.1 -0.3,0.1 -0.4,0.1 -0.4,0.1 -0.3,0.1 -0.4,0.1 -0.4,0.1 -0.3,0.1 -0.4,0.1 -0.4,0.1 -0.3,0.1 -0.4,0.05 -0.05,-0.2 -0.05,-0.05 -0.1,-0.1 -0.05,-0.05 -0.1,-0.2 -0.05,-0.05 -0.05,-0.05 -0.05,-0.2 0.4,-0.05 0.3,-0.1 0.4,-0.1 0.4,-0.1 0.3,-0.1 0.4,-0.1 0.4,-0.1 0.3,-0.1 0.4,-0.1 0.4,-0.1 0.3,-0.1 0.4,-0.1 0.4,-0.1 0.4,-0.1 0.3,-0.1 0.4,-0.1 0.4,-0.1 0.3,-0.1 0.4,-0.1 z" />
        </g>
      </g>
      <g
         id="g31">
        <path
           id="path29"
           shape-rendering="geometricPrecision"
           fill="#c7fe54"
           stroke-linejoin="miter"
           fill-rule="evenodd"
           stroke-width="0"
           stroke="#c7fe54"
           d="m 151.98,156.04 v 0 l -0.76,0.32 -0.76,0.32 -20.4,-5.44 v -0.52 l 0.33,-0.43 z" />
      </g>
      <g
         id="g35">
        <path
           id="path33"
           shape-rendering="geometricPrecision"
           fill="#c7fe54"
           stroke-linejoin="miter"
           fill-rule="evenodd"
           stroke-width="0"
           stroke="#c7fe54"
           d="m 130.39,150.29 v 0 l -0.33,0.43 -0.76,-0.31 -9.72,-16.76 -0.5,-1.86 h 0.58 z" />
      </g>
      <g
         id="g39">
        <path
           id="path37"
           shape-rendering="geometricPrecision"
           fill="#c7fe54"
           stroke-linejoin="miter"
           fill-rule="evenodd"
           stroke-width="0"
           stroke="#c7fe54"
           d="m 119.61,169.3 v 0 l -0.5,0.38 -0.5,-0.38 -0.03,-37.13 0.5,-0.38 0.5,1.86 z" />
      </g>
      <g
         id="g43">
        <path
           id="path41"
           shape-rendering="geometricPrecision"
           fill="#c7fe54"
           stroke-linejoin="miter"
           fill-rule="evenodd"
           stroke-width="0"
           stroke="#c7fe54"
           d="m 118.84,131.21 v 0 l 0.24,0.58 -0.5,0.38 -20.78,-5.57 0.13,-0.48 0.13,-0.48 z" />
      </g>
      <g
         id="g47">
        <path
           id="path45"
           shape-rendering="geometricPrecision"
           fill="#c7fe54"
           stroke-linejoin="miter"
           fill-rule="evenodd"
           stroke-width="0"
           stroke="#c7fe54"
           d="m 119.66,131.79 v 0 h -0.58 l -0.24,-0.58 10.76,-18.64 0.43,0.25 0.43,0.25 z" />
      </g>
      <g
         id="g51">
        <path
           id="path49"
           shape-rendering="geometricPrecision"
           fill="#c7fe54"
           stroke-linejoin="miter"
           fill-rule="evenodd"
           stroke-width="0"
           stroke="#c7fe54"
           d="m 118.07,170.48 v 0 l 1.04,-0.8 0.24,0.58 -10.76,18.64 -0.43,-0.25 -0.43,-0.25 z" />
      </g>
      <g
         id="g57">
        <text
           id="text55"
           text-rendering="geometricPrecision"
           text-anchor="start"
           xml:space="preserve"><tspan
             id="tspan53"
             fill="#c7fe54"
             font-size="10px"
             font-weight="bold"
             font-family="Arial"
             y="198.22"
             x="147.32001">O</tspan></text>
      </g>
      <g
         id="g65">
        <line
           id="line59"
           shape-rendering="auto"
           stroke-width="1"
           stroke="#c7fe54"
           y2="188.61"
           x2="149.45"
           y1="174.67"
           x1="141.41" />
        <path
           id="path61"
           shape-rendering="geometricPrecision"
           fill="#c7fe54"
           stroke-linejoin="miter"
           fill-rule="evenodd"
           stroke-width="0"
           stroke="#c7fe54"
           d="m 139.51,175.65 v 0 l -1.36,-0.37 8.59,14.89 0.87,-0.5 z" />
        <path
           id="path63"
           shape-rendering="geometricPrecision"
           fill="#c7fe54"
           stroke-linejoin="miter"
           fill-rule="evenodd"
           stroke-width="0"
           stroke="#c7fe54"
           d="m 141.61,174.02 v 0 l -0.58,1 7.99,13.84 0.87,-0.5 z" />
      </g>
    </g>
  </g>
</svg>
