<?xml version="1.0"?><svg xmlns="http://www.w3.org/2000/svg" xmlns:xlink="http://www.w3.org/1999/xlink" viewBox="96.93 112.57 58.19 85.77" preserveAspectRatio="xMidYMid" width="100%" height="100%"><clipPath id="814"><rect x="0.5" y="0.5" width="539" height="719" /></clipPath><g id="drawing"><rect x="96.93" y="112.57" width="100%" height="100%" fill="rgb(255, 255, 255)" /><g id="page" clip-path="url(#814)"><g id="Solid"><path d="M96.93 176.2 L96.93 176.2 L97.97 175.4 L99.01 174.6 L118.61 169.3 L119.11 169.68 L118.07 170.48 Z" stroke="rgb(199, 254, 84)" stroke-width="0" fill-rule="evenodd" stroke-linejoin="miter" fill="rgb(199, 254, 84)" shape-rendering="geometricPrecision" /></g><g id="Solid"><path d="M119.35 170.26 L119.35 170.26 L119.11 169.68 L119.61 169.3 L140.03 174.75 L140.27 175.33 L140.51 175.91 Z" stroke="rgb(199, 254, 84)" stroke-width="0" fill-rule="evenodd" stroke-linejoin="miter" fill="rgb(199, 254, 84)" shape-rendering="geometricPrecision" /></g><g id="Solid"><path d="M140.51 175.91 L140.51 175.91 L140.27 175.33 L140.03 174.75 L150.46 156.68 L151.22 156.36 L151.98 156.04 Z" stroke="rgb(199, 254, 84)" stroke-width="0" fill-rule="evenodd" stroke-linejoin="miter" fill="rgb(199, 254, 84)" shape-rendering="geometricPrecision" /></g><g id="Solid"><path d="M99.01 174.6 L99.01 174.6 L97.97 175.4 L96.93 176.2 L108.59 156.01 L108.92 156.44 L109.25 156.87 Z" stroke="rgb(199, 254, 84)" stroke-width="0" fill-rule="evenodd" stroke-linejoin="miter" fill="rgb(199, 254, 84)" shape-rendering="geometricPrecision" /></g><g id="Solid"><g id="Bond's parts"><path d="M128.95 150.5 L128.95 150.5 L129.55 150.5 L129.75 150.6 L130.05 150.65 L130.05 151.25 L129.85 151.3 L129.45 151.4 L129.05 151.5 L128.75 151.6 L128.35 151.7 L127.95 151.8 L127.65 151.9 L127.25 152 L126.85 152.1 L126.55 152.2 L126.15 152.3 L125.75 152.4 L125.35 152.5 L125.05 152.6 L124.65 152.7 L124.25 152.8 L123.95 152.9 L123.55 153 L123.15 153.1 L122.85 153.2 L122.45 153.3 L122.05 153.4 L121.75 153.5 L121.35 153.6 L121.15 153.65 L121.15 152.55 L121.55 152.5 L121.95 152.4 L122.35 152.3 L122.65 152.2 L123.05 152.1 L123.45 152 L123.75 151.9 L124.15 151.8 L124.55 151.7 L124.85 151.6 L125.25 151.5 L125.65 151.4 L125.95 151.3 L126.35 151.2 L126.75 151.1 L127.15 151 L127.45 150.9 L127.85 150.8 L128.25 150.7 L128.55 150.6 Z" stroke="rgb(199, 254, 84)" stroke-width="0" fill-rule="evenodd" stroke-linejoin="miter" fill="rgb(199, 254, 84)" shape-rendering="geometricPrecision" /><path d="M116.07 154 L116.07 154 L116.1 153.95 L116.15 155.05 L115.75 155.1 L115.45 155.2 L115.05 155.3 L114.65 155.4 L114.35 155.5 L113.95 155.6 L113.55 155.7 L113.15 155.8 L112.85 155.9 L112.45 156 L112.05 156.1 L111.75 156.2 L111.35 156.3 L110.95 156.4 L110.65 156.5 L110.25 156.6 L109.85 156.7 L109.55 156.8 L109.15 156.85 L109.1 156.65 L109.05 156.6 L108.95 156.5 L108.9 156.45 L108.8 156.25 L108.75 156.2 L108.7 156.15 L108.65 155.95 L109.05 155.9 L109.35 155.8 L109.75 155.7 L110.15 155.6 L110.45 155.5 L110.85 155.4 L111.25 155.3 L111.55 155.2 L111.95 155.1 L112.35 155 L112.65 154.9 L113.05 154.8 L113.45 154.7 L113.85 154.6 L114.15 154.5 L114.55 154.4 L114.95 154.3 L115.25 154.2 L115.65 154.1 Z" stroke="rgb(199, 254, 84)" stroke-width="0" fill-rule="evenodd" stroke-linejoin="miter" fill="rgb(199, 254, 84)" shape-rendering="geometricPrecision" /></g></g><g id="Solid"><path d="M151.98 156.04 L151.98 156.04 L151.22 156.36 L150.46 156.68 L130.06 151.24 L130.06 150.72 L130.39 150.29 Z" stroke="rgb(199, 254, 84)" stroke-width="0" fill-rule="evenodd" stroke-linejoin="miter" fill="rgb(199, 254, 84)" shape-rendering="geometricPrecision" /></g><g id="Solid"><path d="M130.39 150.29 L130.39 150.29 L130.06 150.72 L129.3 150.41 L119.58 133.65 L119.08 131.79 L119.66 131.79 Z" stroke="rgb(199, 254, 84)" stroke-width="0" fill-rule="evenodd" stroke-linejoin="miter" fill="rgb(199, 254, 84)" shape-rendering="geometricPrecision" /></g><g id="Solid"><path d="M119.61 169.3 L119.61 169.3 L119.11 169.68 L118.61 169.3 L118.58 132.17 L119.08 131.79 L119.58 133.65 Z" stroke="rgb(199, 254, 84)" stroke-width="0" fill-rule="evenodd" stroke-linejoin="miter" fill="rgb(199, 254, 84)" shape-rendering="geometricPrecision" /></g><g id="Solid"><path d="M118.84 131.21 L118.84 131.21 L119.08 131.79 L118.58 132.17 L97.8 126.6 L97.93 126.12 L98.06 125.64 Z" stroke="rgb(199, 254, 84)" stroke-width="0" fill-rule="evenodd" stroke-linejoin="miter" fill="rgb(199, 254, 84)" shape-rendering="geometricPrecision" /></g><g id="Solid"><path d="M119.66 131.79 L119.66 131.79 L119.08 131.79 L118.84 131.21 L129.6 112.57 L130.03 112.82 L130.46 113.07 Z" stroke="rgb(199, 254, 84)" stroke-width="0" fill-rule="evenodd" stroke-linejoin="miter" fill="rgb(199, 254, 84)" shape-rendering="geometricPrecision" /></g><g id="Solid"><path d="M118.07 170.48 L118.07 170.48 L119.11 169.68 L119.35 170.26 L108.59 188.9 L108.16 188.65 L107.73 188.4 Z" stroke="rgb(199, 254, 84)" stroke-width="0" fill-rule="evenodd" stroke-linejoin="miter" fill="rgb(199, 254, 84)" shape-rendering="geometricPrecision" /></g><g><text xml:space="preserve" text-anchor="start" text-rendering="geometricPrecision"><tspan x="147.32" y="198.22" font-family="Arial" font-weight="bold" font-size="10" fill="rgb(199, 254, 84)">O</tspan></text></g><g id="Solid"><line x1="141.41" y1="174.67" x2="149.45" y2="188.61" stroke="rgb(199, 254, 84)" stroke-width="1" shape-rendering="auto" /><path d="M139.51 175.65 L139.51 175.65 L138.15 175.28 L146.74 190.17 L147.61 189.67 Z" stroke="rgb(199, 254, 84)" stroke-width="0" fill-rule="evenodd" stroke-linejoin="miter" fill="rgb(199, 254, 84)" shape-rendering="geometricPrecision" /><path d="M141.61 174.02 L141.61 174.02 L141.03 175.02 L149.02 188.86 L149.89 188.36 Z" stroke="rgb(199, 254, 84)" stroke-width="0" fill-rule="evenodd" stroke-linejoin="miter" fill="rgb(199, 254, 84)" shape-rendering="geometricPrecision" /></g></g></g></svg>